<?xml version="1.0" encoding="utf-8"?>
<!-- Generator: Adobe Illustrator 21.0.2, SVG Export Plug-In . SVG Version: 6.00 Build 0)  -->
<svg version="1.1" id="Layer_1" xmlns="http://www.w3.org/2000/svg" xmlns:xlink="http://www.w3.org/1999/xlink" x="0px" y="0px"
	 viewBox="0 0 396.7 396.7" style="enable-background:new 0 0 396.7 396.7;" xml:space="preserve">
<style type="text/css">
	.st0{fill:none;stroke:#E35310;stroke-width:3;stroke-miterlimit:10;}
</style>
<title>ellipse</title>
<g>
	<path class="st0" d="M233.1,253c-30.1,19.1-70.1,10.2-89.2-19.9s-10.2-70.1,19.9-89.2s70.1-10.2,89.2,19.9
		c7.1,11.2,10.6,24.3,10,37.5"/>
	<path class="st0" d="M159.5,74.8c68.1-21.4,140.7,16.5,162.1,84.7s-16.5,140.7-84.7,162.1C168.8,343,96.2,305.1,74.8,236.9
		c-7.9-25.3-7.9-52.4,0.1-77.6"/>
	<path class="st0" d="M13.1,256.6c-5.9-18.9-8.9-38.5-8.9-58.2C4.2,91.1,91.1,4.2,198.3,4.2s194.2,86.9,194.2,194.2
		s-86.9,194.2-194.2,194.2c-19.9,0-39.6-3-58.6-9"/>
</g>
</svg>
