<?xml version="1.0" encoding="utf-8"?>
<!-- Generator: Adobe Illustrator 21.0.2, SVG Export Plug-In . SVG Version: 6.00 Build 0)  -->
<svg version="1.1" id="Layer_1" xmlns="http://www.w3.org/2000/svg" xmlns:xlink="http://www.w3.org/1999/xlink" x="0px" y="0px"
	 viewBox="0 0 396.7 398.7" style="enable-background:new 0 0 396.7 398.7;" xml:space="preserve">
<style type="text/css">
	.st0{fill:none;stroke:#00A499;stroke-width:3;stroke-miterlimit:10;}
</style>
<title>hex</title>
<g>
	<path class="st0" d="M283.4,375.4l-71.1,19.1l-52-52.3l19-71.4l71.1-19.1l52,52.3L283.4,375.4z"/>
	<path class="st0" d="M127.3,218.5l-71.1,19.1l-52-52.3l19-71.4l71.1-19.2l52,52.3L127.3,218.5z"/>
	<path class="st0" d="M373.5,284.8l-71.1,19.2l-52-52.3l19-71.4l71.1-19.2l52,52.3L373.5,284.8z"/>
	<path class="st0" d="M160.3,342.2l-71.1,19.1l-52-52.3l19-71.4l71.1-19.1l52,52.3L160.3,342.2z"/>
	<path class="st0" d="M217.1,127.9l-71.1,19.1L94,94.8l19-71.4l71.1-19.1l52,52.3L217.1,127.9z"/>
	<path class="st0" d="M340.2,161.1l-71.1,19.1l-52-52.3l19-71.4l71.1-19.1l52,52.3L340.2,161.1z"/>
	<path class="st0" d="M250.4,251.6l-71.1,19.1l-52-52.3l19-71.4l71.1-19.1l52,52.3L250.4,251.6z"/>
</g>
</svg>
