<svg id="Layer_1" data-name="Layer 1" xmlns="http://www.w3.org/2000/svg" viewBox="0 0 20 20"><defs><style>.cls-1{fill:#333f48;}</style></defs><title>phone-dark-lg</title><path class="cls-1" d="M20,2.39a0.51,0.51,0,0,1,0,.16,19.52,19.52,0,0,1-5.74,11.7A19.58,19.58,0,0,1,2.55,20L2.39,20a0.37,0.37,0,0,1-.16,0A0.55,0.55,0,0,1,2,19.74l-2-5a0.4,0.4,0,0,1,.21-0.53L5.7,11.53a0.39,0.39,0,0,1,.49.07l2.66,2.68a16.74,16.74,0,0,0,5.41-5.44L11.6,6.19a0.39,0.39,0,0,1-.07-0.49l2.73-5.46A0.4,0.4,0,0,1,14.79,0l5,2a0.43,0.43,0,0,1,.21.23A0.37,0.37,0,0,1,20,2.39Z"/></svg>