<svg id="Layer_1" data-name="Layer 1" xmlns="http://www.w3.org/2000/svg" viewBox="0 0 14 14"><defs><style>.cls-1{fill:#fff;}</style></defs><title>phone-white</title><path class="cls-1" d="M14,1.67a0.36,0.36,0,0,1,0,.11A13.67,13.67,0,0,1,10,10a13.71,13.71,0,0,1-8.18,4L1.67,14,1.56,14a0.38,0.38,0,0,1-.16-0.16L0,10.36A0.28,0.28,0,0,1,.16,10L4,8.07a0.28,0.28,0,0,1,.34,0L6.19,10A11.72,11.72,0,0,0,10,6.19L8.12,4.33a0.28,0.28,0,0,1,0-.34L10,0.16A0.28,0.28,0,0,1,10.36,0L13.82,1.4a0.3,0.3,0,0,1,.15.16A0.26,0.26,0,0,1,14,1.67Z"/></svg>